<svg viewBox="0 0 64 64" xmlns="http://www.w3.org/2000/svg"><path d="m32 3c-16.016 0-29 12.984-29 29s12.984 29 29 29 29-12.984 29-29-12.984-29-29-29zm0 2c14.91 0 27 12.09 27 27s-12.09 27-27 27-27-12.09-27-27 12.09-27 27-27zm-.023438 3.9707031c-8.536964-.0048672-16.515515 4.7552659-20.49414 12.5410159-4.5420001 8.895-2.8221407 19.706812 4.255859 26.757812.398.34.988375.316219 1.359375-.050781.371-.371.390782-.961375.050782-1.359375-8.2070005-8.204-8.2070005-21.506938 0-29.710937 4.777-4.754 11.535406-6.936907 18.191406-5.878907.551.09 1.068203-.288843 1.158203-.839843.09-.5510005-.288844-1.0701568-.839844-1.1601568-1.232375-.20025-2.462074-.2981328-3.681641-.2988281zm7.542969 1.4121089c-.177125.022375-.347687.091532-.492187.207032-.293.23-.434281.60475-.363282.96875.066001.363.3315.659531.6875.769531.715001.27 1.413657.579828 2.097657.923828.14.065.297218.09961.449219.099609.460999-.003999.86275-.319531.96875-.769531.104999-.449-.104626-.910094-.515626-1.121093-.75-.375-1.515781-.711-2.300781-1-.17-.076001-.354125-.1005-.53125-.078126zm5.9375 3.341797c-.241125.038625-.468406.164141-.628906.369141-.324.414-.272719 1.004469.113281 1.355469.668.527 1.305157 1.098218 1.910156 1.699219 8.199 8.202999 8.199 21.500124 0 29.703124-.284999.242-.410218.625188-.324218.992188.09.363.375281.646328.738281.736328.367.086.750094-.033359.996094-.318359 8.977-8.984 8.976-23.538438 0-32.523438-.66-.66-1.358844-1.281375-2.089844-1.859375-.219-.1445-.473719-.192922-.714844-.154297zm-13.363281 7.273438c-.293625-.028219-.590938.074265-.804688.291015l-4 4c-.339999.398-.316312.988375.054688 1.359376.367.367.961469.390781 1.355469.050781l2.300781-2.289063v16.589844h-2c-.551 0-1 .449-1 1s.449 1 1 1h6c.551 0 1-.449 1-1s-.449-1-1-1h-2v-19c.004-.406-.242187-.772687-.617188-.929688-.09375-.039249-.191187-.062859-.289062-.072265zm9.652344 27.357422c-.367-.008-.706719.190719-.886719.511719-.176.32-.16775.711437.03125 1.023437l1 1.730469c.168.324.504094.531156.871094.535156s.706718-.190719.886719-.511719c.179999-.321.167656-.715437-.027344-1.023437l-1-1.730469c-.172-.324-.508-.531156-.875-.535156zm-19.367188.039062c-.1295-.017125-.261625-.009562-.390625.023438-.258.07-.477375.241656-.609375.472656l-1 1.730469c-.195.309-.207343.703437-.027344 1.023437.18.32.519719.515719.886719.511719s.703094-.211156.871094-.535156l1-1.730469c.137-.23.172469-.503719.105469-.761719-.067-.254-.234844-.477375-.464844-.609375-.115-.0665-.241594-.107875-.371094-.125zm4.435547 1.953125c-.385219.054563-.717422.332219-.826172.730469l-.519531 1.921875c-.105.348-.015812.730187.242188.992188.254.262.633374.362624.984374.265624s.621125-.383281.703126-.738281l.523437-1.929687c.138-.531-.179937-1.07775-.710937-1.21875-.13375-.03525-.268079-.041625-.396485-.023438zm10.357422.033203c-.126094-.016437-.256719-.009609-.386719.025391-.523.141-.835843.668312-.714844 1.195312l.519532 1.929688c.148.535.699375.852125 1.234375.703125.535-.145.852031-.699375.707031-1.234375l-.53125-1.921875c-.117-.384-.449844-.647953-.828125-.697266zm-5.171875.619141c-.551 0-1 .449-1 1v2c0 .551.449 1 1 1s1-.449 1-1v-2c0-.551-.449-1-1-1z"/></svg>