<svg viewBox="0 0 200 200" xmlns="http://www.w3.org/2000/svg" xmlns:xlink="http://www.w3.org/1999/xlink"><clipPath id="a"><path clip-rule="evenodd" d="m376.07 107.48h-20.07l-6-17h26a5.61 5.61 0 1 0 0-11.21h-29.87l-17.13-48.53a5.6 5.6 0 0 0 -10.57 0l-17.05 48.58h-29.94a5.61 5.61 0 1 0 0 11.21h26l-6 17h-20a5.61 5.61 0 1 0 0 11.22h16.08l-14.37 40.82a5.61 5.61 0 1 0 10.58 3.72l15.68-44.54h48.69l15.68 44.54a5.61 5.61 0 0 0 10.58-3.72l-14.36-40.87h16.08a5.61 5.61 0 1 0 0-11.22zm-52.31-58 10.48 29.82h-21zm-20.41 58 6-17h28.87l6 17z"/></clipPath><path d="m166.55 140.16.84-.51v-80l-69.28-40-68.44 39.55-.84.5v80.09l69.28 39.9zm-65-40.52 12.86-7.42 12.87 22.28zm27 19.52-28.68 16.54v-33zm-28.68-22.49v-29.67l12.79 22zm-3.38 0-12.93-7.53 12.83-22.14zm-1.72 3-25.7 14.83 12.87-22.28zm1.72 3v33.03l-28.66-16.54zm3.38 37.13 32.07-18.53 30.39 17.52-62.5 36zm33.32-21.8-15.8-27.4 46.62-27v72.15zm-17.52-30.38-15.8-27.41v-35.59l62.39 36.06zm-19.25-27.41-15.8 27.38-46.62-27.01 62.39-36zm-17.52 30.39-15.8 27.34-30.86 17.8v-72.15zm-14.55 30.62 32 18.53v35l-62.35-36.04z" fill="#222"/><path d="m376.07 107.48h-20.07l-6-17h26a5.61 5.61 0 1 0 0-11.21h-29.87l-17.13-48.53a5.6 5.6 0 0 0 -10.57 0l-17.05 48.58h-29.94a5.61 5.61 0 1 0 0 11.21h26l-6 17h-20a5.61 5.61 0 1 0 0 11.22h16.08l-14.37 40.82a5.61 5.61 0 1 0 10.58 3.72l15.68-44.54h48.69l15.68 44.54a5.61 5.61 0 0 0 10.58-3.72l-14.36-40.87h16.08a5.61 5.61 0 1 0 0-11.22zm-52.31-58 10.48 29.82h-21zm-20.41 58 6-17h28.87l6 17z" fill="#222" fill-rule="evenodd"/><g clip-path="url(#a)"><path d="m1.99-269.16h2019.25v3591.57h-2019.25z" fill="#222"/></g></svg>